name C:\Users\u0101727\Documents\MyRepositories\upper-imu-dc\OpenSim\subject0\MA\train_motion_filt.mot									
datacolumns 10									
datarows 51									
range 10.89 11.39									
endheader 									
time	clav_prot	clav_elev	scapula_abduction	scapula_elevation	scapula_upward_rot	scapula_winging	plane_elv	shoulder_elv	axial_rot
10.89	-47.14806265	8.91632604	-26.0011692	-3.09294077	54.9102423	-15.26688707	26.60451316	78.59182369	-14.94427622
10.9	-47.12820554	8.90187354	-26.48207685	-3.07139193	54.23769851	-15.20504601	26.64627171	78.14954924	-15.29063901
10.91	-47.10345332	8.8841785	-26.94106136	-3.0499789	53.58274246	-15.13640252	26.67844557	77.68216241	-15.62542593
10.92	-47.07433492	8.86315427	-27.37872973	-3.0289948	52.94556899	-15.06160232	26.70162882	77.18976937	-15.94873142
10.93	-47.0414016	8.83875226	-27.79587658	-3.00869826	52.32617763	-14.98130257	26.71640467	76.6726972	-16.26082455
10.94	-47.00520061	8.81096444	-28.1934208	-2.98930825	51.72440804	-14.89615148	26.72329645	76.13148981	-16.56213772
10.95	-46.96624997	8.77982469	-28.57234424	-2.97100063	51.1399749	-14.80676946	26.72272198	75.56690115	-16.8532744
10.96	-46.92501567	8.74540854	-28.93363576	-2.9539064	50.57250007	-14.7137327	26.71495406	74.97988547	-17.13502991
10.97	-46.88189243	8.70783157	-29.27824322	-2.93811169	50.02154061	-14.61755954	26.70008996	74.37158405	-17.40841537
10.98	-46.83718909	8.66724639	-29.60703581	-2.92365914	49.48661149	-14.51870019	26.67803262	73.74330731	-17.67467393
10.99	-46.79111934	8.62383872	-29.92077774	-2.91055041	48.96720268	-14.41753022	26.64848552	73.09651184	-17.93527932
11	-46.74379817	8.57782288	-30.22011406	-2.89874945	48.46279058	-14.31434785	26.61096236	72.43277186	-18.19191065
11.01	-46.69524401	8.52943691	-30.5055683	-2.88818625	47.97284412	-14.20937505	26.56481149	71.75374559	-18.44640226
11.02	-46.64538613	8.47893779	-30.77755098	-2.87876072	47.49682596	-14.10276197	26.50925383	71.06113777	-18.7006734
11.03	-46.59407653	8.42659652	-31.0363772	-2.87034675	47.03418961	-13.99459408	26.44343188	70.35666031	-18.95664671
11.04	-46.54110517	8.37269312	-31.28229112	-2.86279624	46.58437332	-13.88490127	26.36646646	69.64199376	-19.21616797
11.05	-46.48621739	8.31751127	-31.51549461	-2.85594345	46.14679182	-13.77366784	26.27751722	68.91875243	-19.48094056
11.06	-46.42913203	8.26133247	-31.73617736	-2.84960946	45.72082705	-13.66084264	26.17584268	68.18845606	-19.75248663
11.07	-46.3695594	8.20442934	-31.94454587	-2.84360726	45.30581912	-13.54634858	26.0608556	67.4525104	-20.03214344
11.08	-46.30721754	8.14705817	-32.14084883	-2.83774721	44.90105853	-13.43009076	25.93217	66.71219848	-20.32109717
11.09	-46.24184608	8.08945058	-32.32539689	-2.83184309	44.50578054	-13.31196275	25.78963632	65.96868308	-20.62044941
11.1	-46.17321641	8.03180439	-32.49857492	-2.82571874	44.1191623	-13.19185042	25.63336243	65.22301991	-20.93130316
11.11	-46.10113757	7.97427373	-32.66084538	-2.81921516	43.74032332	-13.06963306	25.46371851	64.47617995	-21.25484891
11.12	-46.02545707	7.91695849	-32.81274163	-2.81219805	43.36832943	-12.94518129	25.28132497	63.72907792	-21.59242711
11.13	-45.94605648	7.85989334	-32.95485104	-2.80456588	43.00220066	-12.81835219	25.08702369	62.98260341	-21.94554372
11.14	-45.8628422	7.80303651	-33.08778832	-2.79625809	42.64092279	-12.68898172	24.88183397	62.23765066	-22.31582045
11.15	-45.77573235	7.74625892	-33.21216099	-2.78726344	42.2834625	-12.55687556	24.66689589	61.49514292	-22.70487013
11.16	-45.68464136	7.68933437	-33.32852984	-2.77762783	41.92878549	-12.42179959	24.44340491	60.75604801	-23.1140998
11.17	-45.58946432	7.63193196	-33.43736824	-2.7674612	41.57587677	-12.2834716	24.21254253	60.02138234	-23.54445614
11.18	-45.49006329	7.57361177	-33.53902479	-2.75694254	41.22376203	-12.14155583	23.97540823	59.29220209	-23.99613919
11.19	-45.38625767	7.51382527	-33.63369361	-2.74632233	40.87152891	-11.99566208	23.73295787	58.56958137	-24.46831788
11.2	-45.27782044	7.45192148	-33.72139598	-2.73592158	40.51834711	-11.84535041	23.48595324	57.85457857	-24.95888382
11.21	-45.16448141	7.3871596	-33.80197624	-2.72612692	40.16348634	-11.69014222	23.23492654	57.14819342	-25.46427804
11.22	-45.04593801	7.31872843	-33.87511319	-2.71738151	39.80633133	-11.52953777	22.98016219	56.451318	-25.9794182
11.23	-44.92187327	7.24577211	-33.94034711	-2.71017188	39.44639333	-11.36303942	22.72169751	55.76468578	-26.49774276
11.24	-44.79198003	7.16742142	-33.99712081	-2.70501106	39.08331784	-11.19017953	22.459342	55.08882252	-27.01137521
11.25	-44.65598971	7.08282902	-34.04483225	-2.70241889	38.71688824	-11.01055111	22.19271413	54.42400277	-27.51139697
11.26	-44.51370364	6.99120694	-34.08289496	-2.70290037	38.34702546	-10.82383922	21.92129318	53.77021492	-27.98820548
11.27	-44.36502459	6.89186417	-34.11080238	-2.70692328	37.97378364	-10.62985103	21.64448253	53.12713684	-28.43192485
11.28	-44.20998625	6.7842422	-34.1281916	-2.71489636	37.59734214	-10.42854209	21.36168004	52.49412335	-28.83283286
11.29	-44.04877854	6.66794634	-34.13490264	-2.72714922	37.21799414	-10.22003736	21.07235076	51.87020577	-29.18176895
11.3	-43.8817671	6.54277102	-34.13102953	-2.74391519	36.83613213	-10.00464507	20.77609698	51.25410298	-29.47049356
11.31	-43.70950563	6.40871759	-34.11696059	-2.76531785	36.45223072	-9.78286288	20.47272105	50.64424332	-29.69197756
11.32	-43.53274043	6.26600381	-34.09340569	-2.7913621	36.06682738	-9.55537566	20.16227707	50.03879558	-29.84060966
11.33	-43.35240688	6.11506445	-34.06140964	-2.82192984	35.6805016	-9.32304528	19.84510839	49.435708	-29.91231896
11.34	-43.1696182	5.95654365	-34.0223513	-2.85678035	35.29385327	-9.08689312	19.52186897	48.83275343	-29.9046173
11.35	-42.98564706	5.79127965	-33.97792871	-2.89555502	34.90748125	-8.84807647	19.19352755	48.22757932	-29.81657168
11.36	-42.80190097	5.62028326	-33.93013146	-2.93778568	34.5219628	-8.60786018	18.8613548	47.61776137	-29.64872032
11.37	-42.61989236	5.44471163	-33.88120119	-2.98290607	34.13783504	-8.3675853	18.5268943	47.00085963	-29.40294782
11.38	-42.44120442	5.26583885	-33.83358185	-3.03026528	33.75557895	-8.12863581	18.19191861	46.37447623	-29.08233462
11.39	-42.26745337	5.08502486	-33.78986062	-3.07914289	33.37560692	-7.89240508	17.85837194	45.73631427	-28.69099533
